name Walk5_EMG.mot
datacolumns 17
datarows 16
range 3.06200000 3.07700000
endheader
                time	            vasmed_r	            vaslat_r	            recfem_r	               gra_r	               sar_r	            tibant_r	           perlong_r	            addmag_r	           semimem_r	          bicfemlh_r	            gasmed_r	            gaslat_r	               sol_r	               tfl_r	              gmed_r	              gmax_r	
          3.06200000	          0.01824471	          0.06100381	          0.19452773	          0.42029736	          0.67776982	          0.10646401	          0.08233122	          0.32628329	          0.12383201	          0.09283438	          0.05442654	          0.12376326	          0.01265670	          0.21338230	          0.10582536	          0.15456194	
          3.06300000	          0.02133304	          0.06389809	          0.19582042	          0.41156236	          0.67346557	          0.11052030	          0.07937722	          0.32519268	          0.12165783	          0.09279106	          0.05562287	          0.12341143	          0.01394232	          0.21208423	          0.10482745	          0.15439752	
          3.06400000	          0.02452103	          0.06680072	          0.19710019	          0.40245372	          0.66912389	          0.11498476	          0.07656556	          0.32411222	          0.11945177	          0.09273259	          0.05678349	          0.12307617	          0.01523868	          0.21072444	          0.10382288	          0.15426283	
          3.06500000	          0.02779105	          0.06969980	          0.19836064	          0.39300950	          0.66476006	          0.11989131	          0.07389632	          0.32306672	          0.11721848	          0.09265782	          0.05791276	          0.12276276	          0.01654144	          0.20931135	          0.10281282	          0.15415705	
          3.06600000	          0.03112590	          0.07258378	          0.19959477	          0.38326849	          0.66038372	          0.12527247	          0.07136955	          0.32207657	          0.11496235	          0.09256575	          0.05901542	          0.12247617	          0.01784733	          0.20785434	          0.10179840	          0.15407927	
          3.06700000	          0.03450876	          0.07544223	          0.20079532	          0.37326973	          0.65599847	          0.13115533	          0.06898511	          0.32115688	          0.11268753	          0.09245548	          0.06009575	          0.12222160	          0.01915427	          0.20636351	          0.10078036	          0.15402800	
          3.06800000	          0.03792348	          0.07826654	          0.20195608	          0.36305123	          0.65160263	          0.13755897	          0.06674272	          0.32031711	          0.11039810	          0.09232642	          0.06115818	          0.12200477	          0.02046142	          0.20484966	          0.09975904	          0.15400097	
          3.06900000	          0.04135478	          0.08105003	          0.20307270	          0.35264902	          0.64719008	          0.14449431	          0.06464197	          0.31956155	          0.10809820	          0.09217834	          0.06220829	          0.12183138	          0.02176907	          0.20332481	          0.09873474	          0.15399491	
          3.07000000	          0.04478832	          0.08378732	          0.20414222	          0.34209715	          0.64275103	          0.15196672	          0.06268226	          0.31889003	          0.10579228	          0.09201128	          0.06325304	          0.12170625	          0.02307798	          0.20180263	          0.09770866	          0.15400614	
          3.07100000	          0.04821057	          0.08647361	          0.20516254	          0.33142820	          0.63827282	          0.15997799	          0.06086256	          0.31829886	          0.10348484	          0.09182524	          0.06429969	          0.12163256	          0.02438876	          0.20029781	          0.09668331	          0.15403161	
          3.07200000	          0.05160878	          0.08910424	          0.20613323	          0.32067375	          0.63374051	          0.16852582	          0.05918095	          0.31778238	          0.10118018	          0.09162011	          0.06535455	          0.12161156	          0.02570140	          0.19882459	          0.09566191	          0.15406920	
          3.07300000	          0.05497114	          0.09167451	          0.20705593	          0.30986434	          0.62913767	          0.17760193	          0.05763445	          0.31733461	          0.09888217	          0.09139594	          0.06642255	          0.12164282	          0.02701519	          0.19739542	          0.09464756	          0.15411708	
          3.07400000	          0.05828665	          0.09417958	          0.20793340	          0.29902941	          0.62444788	          0.18719033	          0.05621902	          0.31695013	          0.09659452	          0.09115337	          0.06750700	          0.12172448	          0.02832864	          0.19602022	          0.09364334	          0.15417356	
          3.07500000	          0.06154500	          0.09661440	          0.20876764	          0.28819723	          0.61965742	          0.19726614	          0.05492972	          0.31662417	          0.09432115	          0.09089362	          0.06860953	          0.12185371	          0.02963965	          0.19470661	          0.09265291	          0.15423773	
          3.07600000	          0.06473654	          0.09897380	          0.20955888	          0.27739489	          0.61475882	          0.20779533	          0.05376090	          0.31635203	          0.09206651	          0.09061807	          0.06973033	          0.12202687	          0.03094564	          0.19346047	          0.09168038	          0.15431023	
          3.07700000	          0.06785213	          0.10125267	          0.21030555	          0.26664857	          0.60975198	          0.21873541	          0.05270643	          0.31612747	          0.08983540	          0.09032816	          0.07086859	          0.12223951	          0.03224360	          0.19228611	          0.09072986	          0.15439312	
